<?xml version="1.0" encoding="utf-8" standalone="no"?>
<!DOCTYPE svg PUBLIC "-//W3C//DTD SVG 1.1//EN"
  "http://www.w3.org/Graphics/SVG/1.1/DTD/svg11.dtd">
<svg xmlns:xlink="http://www.w3.org/1999/xlink" width="606.014063pt" height="523.810625pt" viewBox="0 0 606.014063 523.810625" xmlns="http://www.w3.org/2000/svg" version="1.1">
 <metadata>
  <rdf:RDF xmlns:dc="http://purl.org/dc/elements/1.1/" xmlns:cc="http://creativecommons.org/ns#" xmlns:rdf="http://www.w3.org/1999/02/22-rdf-syntax-ns#">
   <cc:Work>
    <dc:type rdf:resource="http://purl.org/dc/dcmitype/StillImage"/>
    <dc:date>2025-10-08T11:02:48.020588</dc:date>
    <dc:format>image/svg+xml</dc:format>
    <dc:creator>
     <cc:Agent>
      <dc:title>Matplotlib v3.7.0, https://matplotlib.org/</dc:title>
     </cc:Agent>
    </dc:creator>
   </cc:Work>
  </rdf:RDF>
 </metadata>
 <defs>
  <style type="text/css">*{stroke-linejoin: round; stroke-linecap: butt}</style>
 </defs>
 <g id="figure_1">
  <g id="patch_1">
   <path d="M 0 523.810625 
L 606.014063 523.810625 
L 606.014063 0 
L 0 0 
L 0 523.810625 
z
" style="fill: none"/>
  </g>
  <g id="axes_1">
   <g id="patch_2">
    <path d="M 96.614063 450.72 
L 598.814063 450.72 
L 598.814063 7.2 
L 96.614063 7.2 
L 96.614063 450.72 
z
" style="fill: none"/>
   </g>
   <g id="PathCollection_1">
    <defs>
     <path id="mac8acaddad" d="M 0 -5 
L -1.12257 -1.545085 
L -4.755283 -1.545085 
L -1.816356 0.59017 
L -2.938926 4.045085 
L -0 1.90983 
L 2.938926 4.045085 
L 1.816356 0.59017 
L 4.755283 -1.545085 
L 1.12257 -1.545085 
z
" style="stroke: #fa8072; stroke-width: 4"/>
    </defs>
    <g clip-path="url(#p847ce390a2)">
     <use xlink:href="#mac8acaddad" x="120.540183" y="50.365478" style="fill: #fa8072; stroke: #fa8072; stroke-width: 4"/>
     <use xlink:href="#mac8acaddad" x="183.100332" y="67.585116" style="fill: #fa8072; stroke: #fa8072; stroke-width: 4"/>
     <use xlink:href="#mac8acaddad" x="246.694246" y="96.675172" style="fill: #fa8072; stroke: #fa8072; stroke-width: 4"/>
     <use xlink:href="#mac8acaddad" x="311.808535" y="156.75879" style="fill: #fa8072; stroke: #fa8072; stroke-width: 4"/>
     <use xlink:href="#mac8acaddad" x="377.28835" y="288.717291" style="fill: #fa8072; stroke: #fa8072; stroke-width: 4"/>
     <use xlink:href="#mac8acaddad" x="442.304258" y="391.661697" style="fill: #fa8072; stroke: #fa8072; stroke-width: 4"/>
     <use xlink:href="#mac8acaddad" x="508.55372" y="419.436151" style="fill: #fa8072; stroke: #fa8072; stroke-width: 4"/>
     <use xlink:href="#mac8acaddad" x="573.263131" y="424.789201" style="fill: #fa8072; stroke: #fa8072; stroke-width: 4"/>
    </g>
   </g>
   <g id="PathCollection_2">
    <defs>
     <path id="m9b0cfb1a83" d="M 0 5 
C 1.326016 5 2.597899 4.473168 3.535534 3.535534 
C 4.473168 2.597899 5 1.326016 5 0 
C 5 -1.326016 4.473168 -2.597899 3.535534 -3.535534 
C 2.597899 -4.473168 1.326016 -5 0 -5 
C -1.326016 -5 -2.597899 -4.473168 -3.535534 -3.535534 
C -4.473168 -2.597899 -5 -1.326016 -5 0 
C -5 1.326016 -4.473168 2.597899 -3.535534 3.535534 
C -2.597899 4.473168 -1.326016 5 0 5 
z
" style="stroke: #228b22; stroke-width: 4"/>
    </defs>
    <g clip-path="url(#p847ce390a2)">
     <use xlink:href="#m9b0cfb1a83" x="120.537156" y="51.684271" style="fill: #228b22; stroke: #228b22; stroke-width: 4"/>
     <use xlink:href="#m9b0cfb1a83" x="183.079143" y="76.81667" style="fill: #228b22; stroke: #228b22; stroke-width: 4"/>
     <use xlink:href="#m9b0cfb1a83" x="246.573161" y="149.426911" style="fill: #228b22; stroke: #228b22; stroke-width: 4"/>
     <use xlink:href="#m9b0cfb1a83" x="312.642509" y="255.669577" style="fill: #228b22; stroke: #228b22; stroke-width: 4"/>
     <use xlink:href="#m9b0cfb1a83" x="377.629659" y="371.142521" style="fill: #228b22; stroke: #228b22; stroke-width: 4"/>
     <use xlink:href="#m9b0cfb1a83" x="443.862472" y="406.17034" style="fill: #228b22; stroke: #228b22; stroke-width: 4"/>
     <use xlink:href="#m9b0cfb1a83" x="508.556747" y="418.117358" style="fill: #228b22; stroke: #228b22; stroke-width: 4"/>
     <use xlink:href="#m9b0cfb1a83" x="575.98679" y="393.800746" style="fill: #228b22; stroke: #228b22; stroke-width: 4"/>
    </g>
   </g>
   <g id="PathCollection_3">
    <defs>
     <path id="m68c2de8305" d="M 0 -5 
L -5 5 
L 5 5 
z
" style="stroke: #9acd32; stroke-width: 4"/>
    </defs>
    <g clip-path="url(#p847ce390a2)">
     <use xlink:href="#m68c2de8305" x="119.441335" y="66.849119" style="fill: #9acd32; stroke: #9acd32; stroke-width: 4"/>
     <use xlink:href="#m68c2de8305" x="180.428135" y="76.154082" style="fill: #9acd32; stroke: #9acd32; stroke-width: 4"/>
     <use xlink:href="#m68c2de8305" x="247.678063" y="130.305682" style="fill: #9acd32; stroke: #9acd32; stroke-width: 4"/>
     <use xlink:href="#m68c2de8305" x="312.686403" y="236.547072" style="fill: #9acd32; stroke: #9acd32; stroke-width: 4"/>
     <use xlink:href="#m68c2de8305" x="378.188921" y="358.614622" style="fill: #9acd32; stroke: #9acd32; stroke-width: 4"/>
     <use xlink:href="#m68c2de8305" x="444.383895" y="410.127359" style="fill: #9acd32; stroke: #9acd32; stroke-width: 4"/>
     <use xlink:href="#m68c2de8305" x="507.482117" y="424.050652" style="fill: #9acd32; stroke: #9acd32; stroke-width: 4"/>
     <use xlink:href="#m68c2de8305" x="573.266158" y="423.470408" style="fill: #9acd32; stroke: #9acd32; stroke-width: 4"/>
    </g>
   </g>
   <g id="PathCollection_4">
    <defs>
     <path id="mf7f473c30c" d="M -1.666667 5 
L 1.666667 5 
L 1.666667 1.666667 
L 5 1.666667 
L 5 -1.666667 
L 1.666667 -1.666667 
L 1.666667 -5 
L -1.666667 -5 
L -1.666667 -1.666667 
L -5 -1.666667 
L -5 1.666667 
L -1.666667 1.666667 
z
" style="stroke: #da70d6; stroke-width: 4"/>
    </defs>
    <g clip-path="url(#p847ce390a2)">
     <use xlink:href="#mf7f473c30c" x="120.556832" y="43.112114" style="fill: #da70d6; stroke: #da70d6; stroke-width: 4"/>
     <use xlink:href="#mf7f473c30c" x="182.084731" y="47.801937" style="fill: #da70d6; stroke: #da70d6; stroke-width: 4"/>
     <use xlink:href="#mf7f473c30c" x="248.284246" y="97.336484" style="fill: #da70d6; stroke: #da70d6; stroke-width: 4"/>
     <use xlink:href="#mf7f473c30c" x="311.231111" y="177.199451" style="fill: #da70d6; stroke: #da70d6; stroke-width: 4"/>
     <use xlink:href="#mf7f473c30c" x="374.617666" y="296.62686" style="fill: #da70d6; stroke: #da70d6; stroke-width: 4"/>
     <use xlink:href="#mf7f473c30c" x="444.396004" y="404.852185" style="fill: #da70d6; stroke: #da70d6; stroke-width: 4"/>
     <use xlink:href="#mf7f473c30c" x="506.966748" y="417.456046" style="fill: #da70d6; stroke: #da70d6; stroke-width: 4"/>
     <use xlink:href="#mf7f473c30c" x="574.354411" y="411.602543" style="fill: #da70d6; stroke: #da70d6; stroke-width: 4"/>
    </g>
   </g>
   <g id="PathCollection_5">
    <defs>
     <path id="mac2a5af1f4" d="M -2.5 5 
L 0 2.5 
L 2.5 5 
L 5 2.5 
L 2.5 0 
L 5 -2.5 
L 2.5 -5 
L 0 -2.5 
L -2.5 -5 
L -5 -2.5 
L -2.5 0 
L -5 2.5 
z
" style="stroke: #ff8c00; stroke-width: 4"/>
    </defs>
    <g clip-path="url(#p847ce390a2)">
     <use xlink:href="#mac2a5af1f4" x="121.099445" y="37.837578" style="fill: #ff8c00; stroke: #ff8c00; stroke-width: 4"/>
     <use xlink:href="#mac2a5af1f4" x="181.601147" y="27.36" style="fill: #ff8c00; stroke: #ff8c00; stroke-width: 4"/>
     <use xlink:href="#mac2a5af1f4" x="245.742214" y="49.19733" style="fill: #ff8c00; stroke: #ff8c00; stroke-width: 4"/>
     <use xlink:href="#mac2a5af1f4" x="310.912505" y="84.883269" style="fill: #ff8c00; stroke: #ff8c00; stroke-width: 4"/>
     <use xlink:href="#mac2a5af1f4" x="378.13973" y="148.925821" style="fill: #ff8c00; stroke: #ff8c00; stroke-width: 4"/>
     <use xlink:href="#mac2a5af1f4" x="441.471798" y="292.091513" style="fill: #ff8c00; stroke: #ff8c00; stroke-width: 4"/>
     <use xlink:href="#mac2a5af1f4" x="507.053021" y="379.870432" style="fill: #ff8c00; stroke: #ff8c00; stroke-width: 4"/>
     <use xlink:href="#mac2a5af1f4" x="573.842069" y="403.689144" style="fill: #ff8c00; stroke: #ff8c00; stroke-width: 4"/>
    </g>
   </g>
   <g id="PathCollection_6">
    <defs>
     <path id="m7a9ce65565" d="M -5 5 
L 5 5 
L 5 -5 
L -5 -5 
z
" style="stroke: #6495ed; stroke-width: 4"/>
    </defs>
    <g clip-path="url(#p847ce390a2)">
     <use xlink:href="#m7a9ce65565" x="120.024814" y="43.770872" style="fill: #6495ed; stroke: #6495ed; stroke-width: 4"/>
     <use xlink:href="#m7a9ce65565" x="180.727064" y="177.042421" style="fill: #6495ed; stroke: #6495ed; stroke-width: 4"/>
     <use xlink:href="#m7a9ce65565" x="244.069726" y="315.592336" style="fill: #6495ed; stroke: #6495ed; stroke-width: 4"/>
     <use xlink:href="#m7a9ce65565" x="309.67668" y="392.16151" style="fill: #6495ed; stroke: #6495ed; stroke-width: 4"/>
     <use xlink:href="#m7a9ce65565" x="374.865134" y="419.934688" style="fill: #6495ed; stroke: #6495ed; stroke-width: 4"/>
     <use xlink:href="#m7a9ce65565" x="442.224039" y="426.609724" style="fill: #6495ed; stroke: #6495ed; stroke-width: 4"/>
     <use xlink:href="#m7a9ce65565" x="508.535557" y="427.348912" style="fill: #6495ed; stroke: #6495ed; stroke-width: 4"/>
     <use xlink:href="#m7a9ce65565" x="573.819366" y="413.580095" style="fill: #6495ed; stroke: #6495ed; stroke-width: 4"/>
    </g>
   </g>
   <g id="matplotlib.axis_1">
    <g id="xtick_1">
     <g id="line2d_1">
      <defs>
       <path id="mabdcfda0d2" d="M 0 0 
L 0 10 
" style="stroke: #000000; stroke-width: 5"/>
      </defs>
      <g>
       <use xlink:href="#mabdcfda0d2" x="194.070457" y="450.72" style="stroke: #000000; stroke-width: 5"/>
      </g>
     </g>
     <g id="text_1">
      <!-- $\mathdefault{10^{-11}}$ -->
      <g transform="translate(159.195457 483.216094) scale(0.25 -0.25)">
       <defs>
        <path id="DejaVuSans-31" d="M 794 531 
L 1825 531 
L 1825 4091 
L 703 3866 
L 703 4441 
L 1819 4666 
L 2450 4666 
L 2450 531 
L 3481 531 
L 3481 0 
L 794 0 
L 794 531 
z
" transform="scale(0.015625)"/>
        <path id="DejaVuSans-30" d="M 2034 4250 
Q 1547 4250 1301 3770 
Q 1056 3291 1056 2328 
Q 1056 1369 1301 889 
Q 1547 409 2034 409 
Q 2525 409 2770 889 
Q 3016 1369 3016 2328 
Q 3016 3291 2770 3770 
Q 2525 4250 2034 4250 
z
M 2034 4750 
Q 2819 4750 3233 4129 
Q 3647 3509 3647 2328 
Q 3647 1150 3233 529 
Q 2819 -91 2034 -91 
Q 1250 -91 836 529 
Q 422 1150 422 2328 
Q 422 3509 836 4129 
Q 1250 4750 2034 4750 
z
" transform="scale(0.015625)"/>
        <path id="DejaVuSans-2212" d="M 678 2272 
L 4684 2272 
L 4684 1741 
L 678 1741 
L 678 2272 
z
" transform="scale(0.015625)"/>
       </defs>
       <use xlink:href="#DejaVuSans-31" transform="translate(0 0.684375)"/>
       <use xlink:href="#DejaVuSans-30" transform="translate(63.623047 0.684375)"/>
       <use xlink:href="#DejaVuSans-2212" transform="translate(128.203125 38.965625) scale(0.7)"/>
       <use xlink:href="#DejaVuSans-31" transform="translate(186.855469 38.965625) scale(0.7)"/>
       <use xlink:href="#DejaVuSans-31" transform="translate(231.391602 38.965625) scale(0.7)"/>
      </g>
     </g>
    </g>
    <g id="xtick_2">
     <g id="line2d_2">
      <g>
       <use xlink:href="#mabdcfda0d2" x="331.073559" y="450.72" style="stroke: #000000; stroke-width: 5"/>
      </g>
     </g>
     <g id="text_2">
      <!-- $\mathdefault{10^{-10}}$ -->
      <g transform="translate(296.198559 483.216094) scale(0.25 -0.25)">
       <use xlink:href="#DejaVuSans-31" transform="translate(0 0.765625)"/>
       <use xlink:href="#DejaVuSans-30" transform="translate(63.623047 0.765625)"/>
       <use xlink:href="#DejaVuSans-2212" transform="translate(128.203125 39.046875) scale(0.7)"/>
       <use xlink:href="#DejaVuSans-31" transform="translate(186.855469 39.046875) scale(0.7)"/>
       <use xlink:href="#DejaVuSans-30" transform="translate(231.391602 39.046875) scale(0.7)"/>
      </g>
     </g>
    </g>
    <g id="xtick_3">
     <g id="line2d_3">
      <g>
       <use xlink:href="#mabdcfda0d2" x="468.076662" y="450.72" style="stroke: #000000; stroke-width: 5"/>
      </g>
     </g>
     <g id="text_3">
      <!-- $\mathdefault{10^{-9}}$ -->
      <g transform="translate(438.701662 483.216094) scale(0.25 -0.25)">
       <defs>
        <path id="DejaVuSans-39" d="M 703 97 
L 703 672 
Q 941 559 1184 500 
Q 1428 441 1663 441 
Q 2288 441 2617 861 
Q 2947 1281 2994 2138 
Q 2813 1869 2534 1725 
Q 2256 1581 1919 1581 
Q 1219 1581 811 2004 
Q 403 2428 403 3163 
Q 403 3881 828 4315 
Q 1253 4750 1959 4750 
Q 2769 4750 3195 4129 
Q 3622 3509 3622 2328 
Q 3622 1225 3098 567 
Q 2575 -91 1691 -91 
Q 1453 -91 1209 -44 
Q 966 3 703 97 
z
M 1959 2075 
Q 2384 2075 2632 2365 
Q 2881 2656 2881 3163 
Q 2881 3666 2632 3958 
Q 2384 4250 1959 4250 
Q 1534 4250 1286 3958 
Q 1038 3666 1038 3163 
Q 1038 2656 1286 2365 
Q 1534 2075 1959 2075 
z
" transform="scale(0.015625)"/>
       </defs>
       <use xlink:href="#DejaVuSans-31" transform="translate(0 0.765625)"/>
       <use xlink:href="#DejaVuSans-30" transform="translate(63.623047 0.765625)"/>
       <use xlink:href="#DejaVuSans-2212" transform="translate(128.203125 39.046875) scale(0.7)"/>
       <use xlink:href="#DejaVuSans-39" transform="translate(186.855469 39.046875) scale(0.7)"/>
      </g>
     </g>
    </g>
    <g id="xtick_4">
     <g id="line2d_4">
      <defs>
       <path id="m400cd6ca69" d="M 0 0 
L 0 2 
" style="stroke: #000000; stroke-width: 0.6"/>
      </defs>
      <g>
       <use xlink:href="#m400cd6ca69" x="98.309397" y="450.72" style="stroke: #000000; stroke-width: 0.6"/>
      </g>
     </g>
    </g>
    <g id="xtick_5">
     <g id="line2d_5">
      <g>
       <use xlink:href="#m400cd6ca69" x="122.434446" y="450.72" style="stroke: #000000; stroke-width: 0.6"/>
      </g>
     </g>
    </g>
    <g id="xtick_6">
     <g id="line2d_6">
      <g>
       <use xlink:href="#m400cd6ca69" x="139.551441" y="450.72" style="stroke: #000000; stroke-width: 0.6"/>
      </g>
     </g>
    </g>
    <g id="xtick_7">
     <g id="line2d_7">
      <g>
       <use xlink:href="#m400cd6ca69" x="152.828413" y="450.72" style="stroke: #000000; stroke-width: 0.6"/>
      </g>
     </g>
    </g>
    <g id="xtick_8">
     <g id="line2d_8">
      <g>
       <use xlink:href="#m400cd6ca69" x="163.67649" y="450.72" style="stroke: #000000; stroke-width: 0.6"/>
      </g>
     </g>
    </g>
    <g id="xtick_9">
     <g id="line2d_9">
      <g>
       <use xlink:href="#m400cd6ca69" x="172.848408" y="450.72" style="stroke: #000000; stroke-width: 0.6"/>
      </g>
     </g>
    </g>
    <g id="xtick_10">
     <g id="line2d_10">
      <g>
       <use xlink:href="#m400cd6ca69" x="180.793484" y="450.72" style="stroke: #000000; stroke-width: 0.6"/>
      </g>
     </g>
    </g>
    <g id="xtick_11">
     <g id="line2d_11">
      <g>
       <use xlink:href="#m400cd6ca69" x="187.801538" y="450.72" style="stroke: #000000; stroke-width: 0.6"/>
      </g>
     </g>
    </g>
    <g id="xtick_12">
     <g id="line2d_12">
      <g>
       <use xlink:href="#m400cd6ca69" x="235.3125" y="450.72" style="stroke: #000000; stroke-width: 0.6"/>
      </g>
     </g>
    </g>
    <g id="xtick_13">
     <g id="line2d_13">
      <g>
       <use xlink:href="#m400cd6ca69" x="259.437549" y="450.72" style="stroke: #000000; stroke-width: 0.6"/>
      </g>
     </g>
    </g>
    <g id="xtick_14">
     <g id="line2d_14">
      <g>
       <use xlink:href="#m400cd6ca69" x="276.554543" y="450.72" style="stroke: #000000; stroke-width: 0.6"/>
      </g>
     </g>
    </g>
    <g id="xtick_15">
     <g id="line2d_15">
      <g>
       <use xlink:href="#m400cd6ca69" x="289.831516" y="450.72" style="stroke: #000000; stroke-width: 0.6"/>
      </g>
     </g>
    </g>
    <g id="xtick_16">
     <g id="line2d_16">
      <g>
       <use xlink:href="#m400cd6ca69" x="300.679592" y="450.72" style="stroke: #000000; stroke-width: 0.6"/>
      </g>
     </g>
    </g>
    <g id="xtick_17">
     <g id="line2d_17">
      <g>
       <use xlink:href="#m400cd6ca69" x="309.85151" y="450.72" style="stroke: #000000; stroke-width: 0.6"/>
      </g>
     </g>
    </g>
    <g id="xtick_18">
     <g id="line2d_18">
      <g>
       <use xlink:href="#m400cd6ca69" x="317.796587" y="450.72" style="stroke: #000000; stroke-width: 0.6"/>
      </g>
     </g>
    </g>
    <g id="xtick_19">
     <g id="line2d_19">
      <g>
       <use xlink:href="#m400cd6ca69" x="324.804641" y="450.72" style="stroke: #000000; stroke-width: 0.6"/>
      </g>
     </g>
    </g>
    <g id="xtick_20">
     <g id="line2d_20">
      <g>
       <use xlink:href="#m400cd6ca69" x="372.315603" y="450.72" style="stroke: #000000; stroke-width: 0.6"/>
      </g>
     </g>
    </g>
    <g id="xtick_21">
     <g id="line2d_21">
      <g>
       <use xlink:href="#m400cd6ca69" x="396.440651" y="450.72" style="stroke: #000000; stroke-width: 0.6"/>
      </g>
     </g>
    </g>
    <g id="xtick_22">
     <g id="line2d_22">
      <g>
       <use xlink:href="#m400cd6ca69" x="413.557646" y="450.72" style="stroke: #000000; stroke-width: 0.6"/>
      </g>
     </g>
    </g>
    <g id="xtick_23">
     <g id="line2d_23">
      <g>
       <use xlink:href="#m400cd6ca69" x="426.834618" y="450.72" style="stroke: #000000; stroke-width: 0.6"/>
      </g>
     </g>
    </g>
    <g id="xtick_24">
     <g id="line2d_24">
      <g>
       <use xlink:href="#m400cd6ca69" x="437.682695" y="450.72" style="stroke: #000000; stroke-width: 0.6"/>
      </g>
     </g>
    </g>
    <g id="xtick_25">
     <g id="line2d_25">
      <g>
       <use xlink:href="#m400cd6ca69" x="446.854613" y="450.72" style="stroke: #000000; stroke-width: 0.6"/>
      </g>
     </g>
    </g>
    <g id="xtick_26">
     <g id="line2d_26">
      <g>
       <use xlink:href="#m400cd6ca69" x="454.799689" y="450.72" style="stroke: #000000; stroke-width: 0.6"/>
      </g>
     </g>
    </g>
    <g id="xtick_27">
     <g id="line2d_27">
      <g>
       <use xlink:href="#m400cd6ca69" x="461.807744" y="450.72" style="stroke: #000000; stroke-width: 0.6"/>
      </g>
     </g>
    </g>
    <g id="xtick_28">
     <g id="line2d_28">
      <g>
       <use xlink:href="#m400cd6ca69" x="509.318705" y="450.72" style="stroke: #000000; stroke-width: 0.6"/>
      </g>
     </g>
    </g>
    <g id="xtick_29">
     <g id="line2d_29">
      <g>
       <use xlink:href="#m400cd6ca69" x="533.443754" y="450.72" style="stroke: #000000; stroke-width: 0.6"/>
      </g>
     </g>
    </g>
    <g id="xtick_30">
     <g id="line2d_30">
      <g>
       <use xlink:href="#m400cd6ca69" x="550.560748" y="450.72" style="stroke: #000000; stroke-width: 0.6"/>
      </g>
     </g>
    </g>
    <g id="xtick_31">
     <g id="line2d_31">
      <g>
       <use xlink:href="#m400cd6ca69" x="563.837721" y="450.72" style="stroke: #000000; stroke-width: 0.6"/>
      </g>
     </g>
    </g>
    <g id="xtick_32">
     <g id="line2d_32">
      <g>
       <use xlink:href="#m400cd6ca69" x="574.685797" y="450.72" style="stroke: #000000; stroke-width: 0.6"/>
      </g>
     </g>
    </g>
    <g id="xtick_33">
     <g id="line2d_33">
      <g>
       <use xlink:href="#m400cd6ca69" x="583.857715" y="450.72" style="stroke: #000000; stroke-width: 0.6"/>
      </g>
     </g>
    </g>
    <g id="xtick_34">
     <g id="line2d_34">
      <g>
       <use xlink:href="#m400cd6ca69" x="591.802792" y="450.72" style="stroke: #000000; stroke-width: 0.6"/>
      </g>
     </g>
    </g>
    <g id="xtick_35">
     <g id="line2d_35">
      <g>
       <use xlink:href="#m400cd6ca69" x="598.810846" y="450.72" style="stroke: #000000; stroke-width: 0.6"/>
      </g>
     </g>
    </g>
    <g id="text_4">
     <!-- Antagonist (M) -->
     <g transform="translate(255.778516 511.411406) scale(0.25 -0.25)">
      <defs>
       <path id="DejaVuSans-41" d="M 2188 4044 
L 1331 1722 
L 3047 1722 
L 2188 4044 
z
M 1831 4666 
L 2547 4666 
L 4325 0 
L 3669 0 
L 3244 1197 
L 1141 1197 
L 716 0 
L 50 0 
L 1831 4666 
z
" transform="scale(0.015625)"/>
       <path id="DejaVuSans-6e" d="M 3513 2113 
L 3513 0 
L 2938 0 
L 2938 2094 
Q 2938 2591 2744 2837 
Q 2550 3084 2163 3084 
Q 1697 3084 1428 2787 
Q 1159 2491 1159 1978 
L 1159 0 
L 581 0 
L 581 3500 
L 1159 3500 
L 1159 2956 
Q 1366 3272 1645 3428 
Q 1925 3584 2291 3584 
Q 2894 3584 3203 3211 
Q 3513 2838 3513 2113 
z
" transform="scale(0.015625)"/>
       <path id="DejaVuSans-74" d="M 1172 4494 
L 1172 3500 
L 2356 3500 
L 2356 3053 
L 1172 3053 
L 1172 1153 
Q 1172 725 1289 603 
Q 1406 481 1766 481 
L 2356 481 
L 2356 0 
L 1766 0 
Q 1100 0 847 248 
Q 594 497 594 1153 
L 594 3053 
L 172 3053 
L 172 3500 
L 594 3500 
L 594 4494 
L 1172 4494 
z
" transform="scale(0.015625)"/>
       <path id="DejaVuSans-61" d="M 2194 1759 
Q 1497 1759 1228 1600 
Q 959 1441 959 1056 
Q 959 750 1161 570 
Q 1363 391 1709 391 
Q 2188 391 2477 730 
Q 2766 1069 2766 1631 
L 2766 1759 
L 2194 1759 
z
M 3341 1997 
L 3341 0 
L 2766 0 
L 2766 531 
Q 2569 213 2275 61 
Q 1981 -91 1556 -91 
Q 1019 -91 701 211 
Q 384 513 384 1019 
Q 384 1609 779 1909 
Q 1175 2209 1959 2209 
L 2766 2209 
L 2766 2266 
Q 2766 2663 2505 2880 
Q 2244 3097 1772 3097 
Q 1472 3097 1187 3025 
Q 903 2953 641 2809 
L 641 3341 
Q 956 3463 1253 3523 
Q 1550 3584 1831 3584 
Q 2591 3584 2966 3190 
Q 3341 2797 3341 1997 
z
" transform="scale(0.015625)"/>
       <path id="DejaVuSans-67" d="M 2906 1791 
Q 2906 2416 2648 2759 
Q 2391 3103 1925 3103 
Q 1463 3103 1205 2759 
Q 947 2416 947 1791 
Q 947 1169 1205 825 
Q 1463 481 1925 481 
Q 2391 481 2648 825 
Q 2906 1169 2906 1791 
z
M 3481 434 
Q 3481 -459 3084 -895 
Q 2688 -1331 1869 -1331 
Q 1566 -1331 1297 -1286 
Q 1028 -1241 775 -1147 
L 775 -588 
Q 1028 -725 1275 -790 
Q 1522 -856 1778 -856 
Q 2344 -856 2625 -561 
Q 2906 -266 2906 331 
L 2906 616 
Q 2728 306 2450 153 
Q 2172 0 1784 0 
Q 1141 0 747 490 
Q 353 981 353 1791 
Q 353 2603 747 3093 
Q 1141 3584 1784 3584 
Q 2172 3584 2450 3431 
Q 2728 3278 2906 2969 
L 2906 3500 
L 3481 3500 
L 3481 434 
z
" transform="scale(0.015625)"/>
       <path id="DejaVuSans-6f" d="M 1959 3097 
Q 1497 3097 1228 2736 
Q 959 2375 959 1747 
Q 959 1119 1226 758 
Q 1494 397 1959 397 
Q 2419 397 2687 759 
Q 2956 1122 2956 1747 
Q 2956 2369 2687 2733 
Q 2419 3097 1959 3097 
z
M 1959 3584 
Q 2709 3584 3137 3096 
Q 3566 2609 3566 1747 
Q 3566 888 3137 398 
Q 2709 -91 1959 -91 
Q 1206 -91 779 398 
Q 353 888 353 1747 
Q 353 2609 779 3096 
Q 1206 3584 1959 3584 
z
" transform="scale(0.015625)"/>
       <path id="DejaVuSans-69" d="M 603 3500 
L 1178 3500 
L 1178 0 
L 603 0 
L 603 3500 
z
M 603 4863 
L 1178 4863 
L 1178 4134 
L 603 4134 
L 603 4863 
z
" transform="scale(0.015625)"/>
       <path id="DejaVuSans-73" d="M 2834 3397 
L 2834 2853 
Q 2591 2978 2328 3040 
Q 2066 3103 1784 3103 
Q 1356 3103 1142 2972 
Q 928 2841 928 2578 
Q 928 2378 1081 2264 
Q 1234 2150 1697 2047 
L 1894 2003 
Q 2506 1872 2764 1633 
Q 3022 1394 3022 966 
Q 3022 478 2636 193 
Q 2250 -91 1575 -91 
Q 1294 -91 989 -36 
Q 684 19 347 128 
L 347 722 
Q 666 556 975 473 
Q 1284 391 1588 391 
Q 1994 391 2212 530 
Q 2431 669 2431 922 
Q 2431 1156 2273 1281 
Q 2116 1406 1581 1522 
L 1381 1569 
Q 847 1681 609 1914 
Q 372 2147 372 2553 
Q 372 3047 722 3315 
Q 1072 3584 1716 3584 
Q 2034 3584 2315 3537 
Q 2597 3491 2834 3397 
z
" transform="scale(0.015625)"/>
       <path id="DejaVuSans-20" transform="scale(0.015625)"/>
       <path id="DejaVuSans-28" d="M 1984 4856 
Q 1566 4138 1362 3434 
Q 1159 2731 1159 2009 
Q 1159 1288 1364 580 
Q 1569 -128 1984 -844 
L 1484 -844 
Q 1016 -109 783 600 
Q 550 1309 550 2009 
Q 550 2706 781 3412 
Q 1013 4119 1484 4856 
L 1984 4856 
z
" transform="scale(0.015625)"/>
       <path id="DejaVuSans-4d" d="M 628 4666 
L 1569 4666 
L 2759 1491 
L 3956 4666 
L 4897 4666 
L 4897 0 
L 4281 0 
L 4281 4097 
L 3078 897 
L 2444 897 
L 1241 4097 
L 1241 0 
L 628 0 
L 628 4666 
z
" transform="scale(0.015625)"/>
       <path id="DejaVuSans-29" d="M 513 4856 
L 1013 4856 
Q 1481 4119 1714 3412 
Q 1947 2706 1947 2009 
Q 1947 1309 1714 600 
Q 1481 -109 1013 -844 
L 513 -844 
Q 928 -128 1133 580 
Q 1338 1288 1338 2009 
Q 1338 2731 1133 3434 
Q 928 4138 513 4856 
z
" transform="scale(0.015625)"/>
      </defs>
      <use xlink:href="#DejaVuSans-41"/>
      <use xlink:href="#DejaVuSans-6e" x="68.408203"/>
      <use xlink:href="#DejaVuSans-74" x="131.787109"/>
      <use xlink:href="#DejaVuSans-61" x="170.996094"/>
      <use xlink:href="#DejaVuSans-67" x="232.275391"/>
      <use xlink:href="#DejaVuSans-6f" x="295.751953"/>
      <use xlink:href="#DejaVuSans-6e" x="356.933594"/>
      <use xlink:href="#DejaVuSans-69" x="420.3125"/>
      <use xlink:href="#DejaVuSans-73" x="448.095703"/>
      <use xlink:href="#DejaVuSans-74" x="500.195312"/>
      <use xlink:href="#DejaVuSans-20" x="539.404297"/>
      <use xlink:href="#DejaVuSans-28" x="571.191406"/>
      <use xlink:href="#DejaVuSans-4d" x="610.205078"/>
      <use xlink:href="#DejaVuSans-29" x="696.484375"/>
     </g>
    </g>
   </g>
   <g id="matplotlib.axis_2">
    <g id="ytick_1">
     <g id="line2d_36">
      <defs>
       <path id="m2614b37718" d="M 0 0 
L -10 0 
" style="stroke: #000000; stroke-width: 5"/>
      </defs>
      <g>
       <use xlink:href="#m2614b37718" x="96.614063" y="430.76271" style="stroke: #000000; stroke-width: 5"/>
      </g>
     </g>
     <g id="text_5">
      <!-- 0 -->
      <g transform="translate(67.207813 440.260757) scale(0.25 -0.25)">
       <use xlink:href="#DejaVuSans-30"/>
      </g>
     </g>
    </g>
    <g id="ytick_2">
     <g id="line2d_37">
      <g>
       <use xlink:href="#m2614b37718" x="96.614063" y="353.793921" style="stroke: #000000; stroke-width: 5"/>
      </g>
     </g>
     <g id="text_6">
      <!-- 20 -->
      <g transform="translate(51.301563 363.291968) scale(0.25 -0.25)">
       <defs>
        <path id="DejaVuSans-32" d="M 1228 531 
L 3431 531 
L 3431 0 
L 469 0 
L 469 531 
Q 828 903 1448 1529 
Q 2069 2156 2228 2338 
Q 2531 2678 2651 2914 
Q 2772 3150 2772 3378 
Q 2772 3750 2511 3984 
Q 2250 4219 1831 4219 
Q 1534 4219 1204 4116 
Q 875 4013 500 3803 
L 500 4441 
Q 881 4594 1212 4672 
Q 1544 4750 1819 4750 
Q 2544 4750 2975 4387 
Q 3406 4025 3406 3419 
Q 3406 3131 3298 2873 
Q 3191 2616 2906 2266 
Q 2828 2175 2409 1742 
Q 1991 1309 1228 531 
z
" transform="scale(0.015625)"/>
       </defs>
       <use xlink:href="#DejaVuSans-32"/>
       <use xlink:href="#DejaVuSans-30" x="63.623047"/>
      </g>
     </g>
    </g>
    <g id="ytick_3">
     <g id="line2d_38">
      <g>
       <use xlink:href="#m2614b37718" x="96.614063" y="276.825132" style="stroke: #000000; stroke-width: 5"/>
      </g>
     </g>
     <g id="text_7">
      <!-- 40 -->
      <g transform="translate(51.301563 286.323179) scale(0.25 -0.25)">
       <defs>
        <path id="DejaVuSans-34" d="M 2419 4116 
L 825 1625 
L 2419 1625 
L 2419 4116 
z
M 2253 4666 
L 3047 4666 
L 3047 1625 
L 3713 1625 
L 3713 1100 
L 3047 1100 
L 3047 0 
L 2419 0 
L 2419 1100 
L 313 1100 
L 313 1709 
L 2253 4666 
z
" transform="scale(0.015625)"/>
       </defs>
       <use xlink:href="#DejaVuSans-34"/>
       <use xlink:href="#DejaVuSans-30" x="63.623047"/>
      </g>
     </g>
    </g>
    <g id="ytick_4">
     <g id="line2d_39">
      <g>
       <use xlink:href="#m2614b37718" x="96.614063" y="199.856343" style="stroke: #000000; stroke-width: 5"/>
      </g>
     </g>
     <g id="text_8">
      <!-- 60 -->
      <g transform="translate(51.301563 209.354389) scale(0.25 -0.25)">
       <defs>
        <path id="DejaVuSans-36" d="M 2113 2584 
Q 1688 2584 1439 2293 
Q 1191 2003 1191 1497 
Q 1191 994 1439 701 
Q 1688 409 2113 409 
Q 2538 409 2786 701 
Q 3034 994 3034 1497 
Q 3034 2003 2786 2293 
Q 2538 2584 2113 2584 
z
M 3366 4563 
L 3366 3988 
Q 3128 4100 2886 4159 
Q 2644 4219 2406 4219 
Q 1781 4219 1451 3797 
Q 1122 3375 1075 2522 
Q 1259 2794 1537 2939 
Q 1816 3084 2150 3084 
Q 2853 3084 3261 2657 
Q 3669 2231 3669 1497 
Q 3669 778 3244 343 
Q 2819 -91 2113 -91 
Q 1303 -91 875 529 
Q 447 1150 447 2328 
Q 447 3434 972 4092 
Q 1497 4750 2381 4750 
Q 2619 4750 2861 4703 
Q 3103 4656 3366 4563 
z
" transform="scale(0.015625)"/>
       </defs>
       <use xlink:href="#DejaVuSans-36"/>
       <use xlink:href="#DejaVuSans-30" x="63.623047"/>
      </g>
     </g>
    </g>
    <g id="ytick_5">
     <g id="line2d_40">
      <g>
       <use xlink:href="#m2614b37718" x="96.614063" y="122.887553" style="stroke: #000000; stroke-width: 5"/>
      </g>
     </g>
     <g id="text_9">
      <!-- 80 -->
      <g transform="translate(51.301563 132.3856) scale(0.25 -0.25)">
       <defs>
        <path id="DejaVuSans-38" d="M 2034 2216 
Q 1584 2216 1326 1975 
Q 1069 1734 1069 1313 
Q 1069 891 1326 650 
Q 1584 409 2034 409 
Q 2484 409 2743 651 
Q 3003 894 3003 1313 
Q 3003 1734 2745 1975 
Q 2488 2216 2034 2216 
z
M 1403 2484 
Q 997 2584 770 2862 
Q 544 3141 544 3541 
Q 544 4100 942 4425 
Q 1341 4750 2034 4750 
Q 2731 4750 3128 4425 
Q 3525 4100 3525 3541 
Q 3525 3141 3298 2862 
Q 3072 2584 2669 2484 
Q 3125 2378 3379 2068 
Q 3634 1759 3634 1313 
Q 3634 634 3220 271 
Q 2806 -91 2034 -91 
Q 1263 -91 848 271 
Q 434 634 434 1313 
Q 434 1759 690 2068 
Q 947 2378 1403 2484 
z
M 1172 3481 
Q 1172 3119 1398 2916 
Q 1625 2713 2034 2713 
Q 2441 2713 2670 2916 
Q 2900 3119 2900 3481 
Q 2900 3844 2670 4047 
Q 2441 4250 2034 4250 
Q 1625 4250 1398 4047 
Q 1172 3844 1172 3481 
z
" transform="scale(0.015625)"/>
       </defs>
       <use xlink:href="#DejaVuSans-38"/>
       <use xlink:href="#DejaVuSans-30" x="63.623047"/>
      </g>
     </g>
    </g>
    <g id="ytick_6">
     <g id="line2d_41">
      <g>
       <use xlink:href="#m2614b37718" x="96.614063" y="45.918764" style="stroke: #000000; stroke-width: 5"/>
      </g>
     </g>
     <g id="text_10">
      <!-- 100 -->
      <g transform="translate(35.395313 55.416811) scale(0.25 -0.25)">
       <use xlink:href="#DejaVuSans-31"/>
       <use xlink:href="#DejaVuSans-30" x="63.623047"/>
       <use xlink:href="#DejaVuSans-30" x="127.246094"/>
      </g>
     </g>
    </g>
    <g id="text_11">
     <!-- IL1B signaling (%) -->
     <g transform="translate(26.196094 342.0225) rotate(-90) scale(0.25 -0.25)">
      <defs>
       <path id="DejaVuSans-49" d="M 628 4666 
L 1259 4666 
L 1259 0 
L 628 0 
L 628 4666 
z
" transform="scale(0.015625)"/>
       <path id="DejaVuSans-4c" d="M 628 4666 
L 1259 4666 
L 1259 531 
L 3531 531 
L 3531 0 
L 628 0 
L 628 4666 
z
" transform="scale(0.015625)"/>
       <path id="DejaVuSans-42" d="M 1259 2228 
L 1259 519 
L 2272 519 
Q 2781 519 3026 730 
Q 3272 941 3272 1375 
Q 3272 1813 3026 2020 
Q 2781 2228 2272 2228 
L 1259 2228 
z
M 1259 4147 
L 1259 2741 
L 2194 2741 
Q 2656 2741 2882 2914 
Q 3109 3088 3109 3444 
Q 3109 3797 2882 3972 
Q 2656 4147 2194 4147 
L 1259 4147 
z
M 628 4666 
L 2241 4666 
Q 2963 4666 3353 4366 
Q 3744 4066 3744 3513 
Q 3744 3084 3544 2831 
Q 3344 2578 2956 2516 
Q 3422 2416 3680 2098 
Q 3938 1781 3938 1306 
Q 3938 681 3513 340 
Q 3088 0 2303 0 
L 628 0 
L 628 4666 
z
" transform="scale(0.015625)"/>
       <path id="DejaVuSans-6c" d="M 603 4863 
L 1178 4863 
L 1178 0 
L 603 0 
L 603 4863 
z
" transform="scale(0.015625)"/>
       <path id="DejaVuSans-25" d="M 4653 2053 
Q 4381 2053 4226 1822 
Q 4072 1591 4072 1178 
Q 4072 772 4226 539 
Q 4381 306 4653 306 
Q 4919 306 5073 539 
Q 5228 772 5228 1178 
Q 5228 1588 5073 1820 
Q 4919 2053 4653 2053 
z
M 4653 2450 
Q 5147 2450 5437 2106 
Q 5728 1763 5728 1178 
Q 5728 594 5436 251 
Q 5144 -91 4653 -91 
Q 4153 -91 3862 251 
Q 3572 594 3572 1178 
Q 3572 1766 3864 2108 
Q 4156 2450 4653 2450 
z
M 1428 4353 
Q 1159 4353 1004 4120 
Q 850 3888 850 3481 
Q 850 3069 1003 2837 
Q 1156 2606 1428 2606 
Q 1700 2606 1854 2837 
Q 2009 3069 2009 3481 
Q 2009 3884 1853 4118 
Q 1697 4353 1428 4353 
z
M 4250 4750 
L 4750 4750 
L 1831 -91 
L 1331 -91 
L 4250 4750 
z
M 1428 4750 
Q 1922 4750 2215 4408 
Q 2509 4066 2509 3481 
Q 2509 2891 2217 2550 
Q 1925 2209 1428 2209 
Q 931 2209 642 2551 
Q 353 2894 353 3481 
Q 353 4063 643 4406 
Q 934 4750 1428 4750 
z
" transform="scale(0.015625)"/>
      </defs>
      <use xlink:href="#DejaVuSans-49"/>
      <use xlink:href="#DejaVuSans-4c" x="29.492188"/>
      <use xlink:href="#DejaVuSans-31" x="85.205078"/>
      <use xlink:href="#DejaVuSans-42" x="148.828125"/>
      <use xlink:href="#DejaVuSans-20" x="217.431641"/>
      <use xlink:href="#DejaVuSans-73" x="249.21875"/>
      <use xlink:href="#DejaVuSans-69" x="301.318359"/>
      <use xlink:href="#DejaVuSans-67" x="329.101562"/>
      <use xlink:href="#DejaVuSans-6e" x="392.578125"/>
      <use xlink:href="#DejaVuSans-61" x="455.957031"/>
      <use xlink:href="#DejaVuSans-6c" x="517.236328"/>
      <use xlink:href="#DejaVuSans-69" x="545.019531"/>
      <use xlink:href="#DejaVuSans-6e" x="572.802734"/>
      <use xlink:href="#DejaVuSans-67" x="636.181641"/>
      <use xlink:href="#DejaVuSans-20" x="699.658203"/>
      <use xlink:href="#DejaVuSans-28" x="731.445312"/>
      <use xlink:href="#DejaVuSans-25" x="770.458984"/>
      <use xlink:href="#DejaVuSans-29" x="865.478516"/>
     </g>
    </g>
   </g>
   <g id="line2d_42">
    <path d="M 119.441335 45.918764 
L 143.470043 49.787048 
L 167.498751 55.458792 
L 191.52746 63.68933 
L 215.556168 75.452793 
L 239.584876 91.89695 
L 263.613584 114.164641 
L 287.642292 143.007738 
L 311.671 178.207568 
L 335.699708 218.056469 
L 359.728417 259.401313 
L 383.757125 298.547276 
L 407.785833 332.553702 
L 431.814541 360.013431 
L 455.843249 380.958656 
L 479.871957 396.281326 
L 503.900665 407.165903 
L 527.929374 414.743097 
L 551.958082 419.94605 
L 575.98679 423.485871 
" clip-path="url(#p847ce390a2)" style="fill: none; stroke: #8b0000; stroke-width: 7.5; stroke-linecap: square"/>
   </g>
   <g id="line2d_43">
    <path d="M 119.441335 46.850517 
L 143.470043 51.208942 
L 167.498751 57.645225 
L 191.52746 67.083605 
L 215.556168 80.77924 
L 239.584876 100.339247 
L 263.613584 127.61252 
L 287.642292 164.283954 
L 311.671 210.946797 
L 335.699708 265.555496 
L 359.728417 321.877388 
L 383.757125 370.050872 
L 407.785833 401.705347 
L 431.814541 416.801839 
L 455.843249 422.661336 
L 479.871957 425.463842 
L 503.900665 427.232149 
L 527.929374 428.407792 
L 551.958082 429.191399 
L 575.98679 429.714003 
" clip-path="url(#p847ce390a2)" style="fill: none; stroke-dasharray: 7.5,12.375; stroke-dashoffset: 0; stroke: #006400; stroke-width: 7.5"/>
   </g>
   <g id="line2d_44">
    <path d="M 119.441335 45.846166 
L 143.470043 49.72013 
L 167.498751 55.449512 
L 191.52746 63.870129 
L 215.556168 76.130379 
L 239.584876 93.730473 
L 263.613584 118.463457 
L 287.642292 152.119325 
L 311.671 195.74019 
L 335.699708 248.258118 
L 359.728417 304.833434 
L 383.757125 356.48624 
L 407.785833 393.681387 
L 431.814541 413.369511 
L 455.843249 421.284277 
L 479.871957 424.691436 
L 503.900665 426.721079 
L 527.929374 428.065746 
L 551.958082 428.962638 
L 575.98679 429.56109 
" clip-path="url(#p847ce390a2)" style="fill: none; stroke-dasharray: 48,12,7.5,12; stroke-dashoffset: 0; stroke: #6b8e23; stroke-width: 7.5"/>
   </g>
   <g id="line2d_45">
    <path d="M 119.441335 46.313337 
L 143.470043 50.368658 
L 167.498751 56.309457 
L 191.52746 64.919248 
L 215.556168 77.201029 
L 239.584876 94.321049 
L 263.613584 117.408579 
L 287.642292 147.139589 
L 311.671 183.136643 
L 335.699708 223.478971 
L 359.728417 264.846859 
L 383.757125 303.536669 
L 407.785833 336.763409 
L 431.814541 363.334451 
L 455.843249 383.448638 
L 479.871957 398.08107 
L 503.900665 408.433906 
L 527.929374 415.620948 
L 551.958082 420.546619 
L 575.98679 423.893465 
" clip-path="url(#p847ce390a2)" style="fill: none; stroke-dasharray: 27.75,12; stroke-dashoffset: 0; stroke: #ff00ff; stroke-width: 7.5"/>
   </g>
   <g id="line2d_46">
    <path d="M 119.441335 39.915514 
L 143.470043 40.890462 
L 167.498751 42.342028 
L 191.52746 44.496842 
L 215.556168 47.682017 
L 239.584876 52.360313 
L 263.613584 59.167482 
L 287.642292 68.937374 
L 311.671 82.684628 
L 335.699708 101.4934 
L 359.728417 126.250973 
L 383.757125 157.210751 
L 407.785833 193.515438 
L 431.814541 233.000613 
L 455.843249 272.581611 
L 479.871957 309.148616 
L 503.900665 340.475571 
L 527.929374 365.634602 
L 551.958082 384.821367 
L 575.98679 398.889313 
" clip-path="url(#p847ce390a2)" style="fill: none; stroke-dasharray: 75,22.5; stroke-dashoffset: 37.5; stroke: #ff8c00; stroke-width: 7.5"/>
   </g>
   <g id="line2d_47">
    <path d="M 119.441335 71.783436 
L 143.470043 87.888577 
L 167.498751 111.079374 
L 191.52746 143.70534 
L 215.556168 187.832732 
L 239.584876 243.561692 
L 263.613584 305.916981 
L 287.642292 362.520112 
L 311.671 399.530602 
L 335.699708 415.848188 
L 359.728417 422.044402 
L 383.757125 425.209137 
L 407.785833 427.156717 
L 431.814541 428.398773 
L 455.843249 429.203327 
L 479.871957 429.729829 
L 503.900665 430.076708 
L 527.929374 430.306273 
L 551.958082 430.458653 
L 575.98679 430.56 
" clip-path="url(#p847ce390a2)" style="fill: none; stroke-dasharray: 22.5,7.5,7.5,7.5,7.5,7.5; stroke-dashoffset: 0; stroke: #0000ff; stroke-width: 7.5"/>
   </g>
   <g id="patch_3">
    <path d="M 96.614063 450.72 
L 96.614063 7.2 
" style="fill: none; stroke: #000000; stroke-width: 4; stroke-linejoin: miter; stroke-linecap: square"/>
   </g>
   <g id="patch_4">
    <path d="M 96.614062 450.72 
L 598.814062 450.72 
" style="fill: none; stroke: #000000; stroke-width: 4; stroke-linejoin: miter; stroke-linecap: square"/>
   </g>
   <g id="legend_1">
    <g id="patch_5">
     <path d="M 402.452344 151.303125 
L 588.314063 151.303125 
Q 591.314063 151.303125 591.314063 148.303125 
L 591.314063 17.7 
Q 591.314063 14.7 588.314063 14.7 
L 402.452344 14.7 
Q 399.452344 14.7 399.452344 17.7 
L 399.452344 148.303125 
Q 399.452344 151.303125 402.452344 151.303125 
z
" style="fill: #ffffff; opacity: 0.8; stroke: #cccccc; stroke-linejoin: miter"/>
    </g>
    <g id="line2d_48">
     <path d="M 405.452344 26.847656 
L 420.452344 26.847656 
L 435.452344 26.847656 
" style="fill: none; stroke: #8b0000; stroke-width: 7.5; stroke-linecap: square"/>
    </g>
    <g id="text_12">
     <!-- WT -->
     <g transform="translate(447.452344 32.097656) scale(0.15 -0.15)">
      <defs>
       <path id="DejaVuSans-57" d="M 213 4666 
L 850 4666 
L 1831 722 
L 2809 4666 
L 3519 4666 
L 4500 722 
L 5478 4666 
L 6119 4666 
L 4947 0 
L 4153 0 
L 3169 4050 
L 2175 0 
L 1381 0 
L 213 4666 
z
" transform="scale(0.015625)"/>
       <path id="DejaVuSans-54" d="M -19 4666 
L 3928 4666 
L 3928 4134 
L 2272 4134 
L 2272 0 
L 1638 0 
L 1638 4134 
L -19 4134 
L -19 4666 
z
" transform="scale(0.015625)"/>
      </defs>
      <use xlink:href="#DejaVuSans-57"/>
      <use xlink:href="#DejaVuSans-54" x="98.876953"/>
     </g>
    </g>
    <g id="line2d_49">
     <path d="M 405.452344 48.864844 
L 420.452344 48.864844 
L 435.452344 48.864844 
" style="fill: none; stroke-dasharray: 7.5,12.375; stroke-dashoffset: 0; stroke: #006400; stroke-width: 7.5"/>
    </g>
    <g id="text_13">
     <!-- 39:113 -->
     <g transform="translate(447.452344 54.114844) scale(0.15 -0.15)">
      <defs>
       <path id="DejaVuSans-33" d="M 2597 2516 
Q 3050 2419 3304 2112 
Q 3559 1806 3559 1356 
Q 3559 666 3084 287 
Q 2609 -91 1734 -91 
Q 1441 -91 1130 -33 
Q 819 25 488 141 
L 488 750 
Q 750 597 1062 519 
Q 1375 441 1716 441 
Q 2309 441 2620 675 
Q 2931 909 2931 1356 
Q 2931 1769 2642 2001 
Q 2353 2234 1838 2234 
L 1294 2234 
L 1294 2753 
L 1863 2753 
Q 2328 2753 2575 2939 
Q 2822 3125 2822 3475 
Q 2822 3834 2567 4026 
Q 2313 4219 1838 4219 
Q 1578 4219 1281 4162 
Q 984 4106 628 3988 
L 628 4550 
Q 988 4650 1302 4700 
Q 1616 4750 1894 4750 
Q 2613 4750 3031 4423 
Q 3450 4097 3450 3541 
Q 3450 3153 3228 2886 
Q 3006 2619 2597 2516 
z
" transform="scale(0.015625)"/>
       <path id="DejaVuSans-3a" d="M 750 794 
L 1409 794 
L 1409 0 
L 750 0 
L 750 794 
z
M 750 3309 
L 1409 3309 
L 1409 2516 
L 750 2516 
L 750 3309 
z
" transform="scale(0.015625)"/>
      </defs>
      <use xlink:href="#DejaVuSans-33"/>
      <use xlink:href="#DejaVuSans-39" x="63.623047"/>
      <use xlink:href="#DejaVuSans-3a" x="127.246094"/>
      <use xlink:href="#DejaVuSans-31" x="160.9375"/>
      <use xlink:href="#DejaVuSans-31" x="224.560547"/>
      <use xlink:href="#DejaVuSans-33" x="288.183594"/>
     </g>
    </g>
    <g id="line2d_50">
     <path d="M 405.452344 70.882031 
L 420.452344 70.882031 
L 435.452344 70.882031 
" style="fill: none; stroke-dasharray: 48,12,7.5,12; stroke-dashoffset: 0; stroke: #6b8e23; stroke-width: 7.5"/>
    </g>
    <g id="text_14">
     <!-- 54:98 -->
     <g transform="translate(447.452344 76.132031) scale(0.15 -0.15)">
      <defs>
       <path id="DejaVuSans-35" d="M 691 4666 
L 3169 4666 
L 3169 4134 
L 1269 4134 
L 1269 2991 
Q 1406 3038 1543 3061 
Q 1681 3084 1819 3084 
Q 2600 3084 3056 2656 
Q 3513 2228 3513 1497 
Q 3513 744 3044 326 
Q 2575 -91 1722 -91 
Q 1428 -91 1123 -41 
Q 819 9 494 109 
L 494 744 
Q 775 591 1075 516 
Q 1375 441 1709 441 
Q 2250 441 2565 725 
Q 2881 1009 2881 1497 
Q 2881 1984 2565 2268 
Q 2250 2553 1709 2553 
Q 1456 2553 1204 2497 
Q 953 2441 691 2322 
L 691 4666 
z
" transform="scale(0.015625)"/>
      </defs>
      <use xlink:href="#DejaVuSans-35"/>
      <use xlink:href="#DejaVuSans-34" x="63.623047"/>
      <use xlink:href="#DejaVuSans-3a" x="127.246094"/>
      <use xlink:href="#DejaVuSans-39" x="160.9375"/>
      <use xlink:href="#DejaVuSans-38" x="224.560547"/>
     </g>
    </g>
    <g id="line2d_51">
     <path d="M 405.452344 92.899219 
L 420.452344 92.899219 
L 435.452344 92.899219 
" style="fill: none; stroke-dasharray: 27.75,12; stroke-dashoffset: 0; stroke: #ff00ff; stroke-width: 7.5"/>
    </g>
    <g id="text_15">
     <!-- 74:79 -->
     <g transform="translate(447.452344 98.149219) scale(0.15 -0.15)">
      <defs>
       <path id="DejaVuSans-37" d="M 525 4666 
L 3525 4666 
L 3525 4397 
L 1831 0 
L 1172 0 
L 2766 4134 
L 525 4134 
L 525 4666 
z
" transform="scale(0.015625)"/>
      </defs>
      <use xlink:href="#DejaVuSans-37"/>
      <use xlink:href="#DejaVuSans-34" x="63.623047"/>
      <use xlink:href="#DejaVuSans-3a" x="127.246094"/>
      <use xlink:href="#DejaVuSans-37" x="160.9375"/>
      <use xlink:href="#DejaVuSans-39" x="224.560547"/>
     </g>
    </g>
    <g id="line2d_52">
     <path d="M 405.452344 114.916406 
L 420.452344 114.916406 
L 435.452344 114.916406 
" style="fill: none; stroke-dasharray: 75,22.5; stroke-dashoffset: 37.5; stroke: #ff8c00; stroke-width: 7.5"/>
    </g>
    <g id="text_16">
     <!-- 87:66 -->
     <g transform="translate(447.452344 120.166406) scale(0.15 -0.15)">
      <use xlink:href="#DejaVuSans-38"/>
      <use xlink:href="#DejaVuSans-37" x="63.623047"/>
      <use xlink:href="#DejaVuSans-3a" x="127.246094"/>
      <use xlink:href="#DejaVuSans-36" x="160.9375"/>
      <use xlink:href="#DejaVuSans-36" x="224.560547"/>
     </g>
    </g>
    <g id="line2d_53">
     <path d="M 405.452344 136.933594 
L 420.452344 136.933594 
L 435.452344 136.933594 
" style="fill: none; stroke-dasharray: 22.5,7.5,7.5,7.5,7.5,7.5; stroke-dashoffset: 0; stroke: #0000ff; stroke-width: 7.5"/>
    </g>
    <g id="text_17">
     <!-- 93:60 (Isunakinra) -->
     <g transform="translate(447.452344 142.183594) scale(0.15 -0.15)">
      <defs>
       <path id="DejaVuSans-75" d="M 544 1381 
L 544 3500 
L 1119 3500 
L 1119 1403 
Q 1119 906 1312 657 
Q 1506 409 1894 409 
Q 2359 409 2629 706 
Q 2900 1003 2900 1516 
L 2900 3500 
L 3475 3500 
L 3475 0 
L 2900 0 
L 2900 538 
Q 2691 219 2414 64 
Q 2138 -91 1772 -91 
Q 1169 -91 856 284 
Q 544 659 544 1381 
z
M 1991 3584 
L 1991 3584 
z
" transform="scale(0.015625)"/>
       <path id="DejaVuSans-6b" d="M 581 4863 
L 1159 4863 
L 1159 1991 
L 2875 3500 
L 3609 3500 
L 1753 1863 
L 3688 0 
L 2938 0 
L 1159 1709 
L 1159 0 
L 581 0 
L 581 4863 
z
" transform="scale(0.015625)"/>
       <path id="DejaVuSans-72" d="M 2631 2963 
Q 2534 3019 2420 3045 
Q 2306 3072 2169 3072 
Q 1681 3072 1420 2755 
Q 1159 2438 1159 1844 
L 1159 0 
L 581 0 
L 581 3500 
L 1159 3500 
L 1159 2956 
Q 1341 3275 1631 3429 
Q 1922 3584 2338 3584 
Q 2397 3584 2469 3576 
Q 2541 3569 2628 3553 
L 2631 2963 
z
" transform="scale(0.015625)"/>
      </defs>
      <use xlink:href="#DejaVuSans-39"/>
      <use xlink:href="#DejaVuSans-33" x="63.623047"/>
      <use xlink:href="#DejaVuSans-3a" x="127.246094"/>
      <use xlink:href="#DejaVuSans-36" x="160.9375"/>
      <use xlink:href="#DejaVuSans-30" x="224.560547"/>
      <use xlink:href="#DejaVuSans-20" x="288.183594"/>
      <use xlink:href="#DejaVuSans-28" x="319.970703"/>
      <use xlink:href="#DejaVuSans-49" x="358.984375"/>
      <use xlink:href="#DejaVuSans-73" x="388.476562"/>
      <use xlink:href="#DejaVuSans-75" x="440.576172"/>
      <use xlink:href="#DejaVuSans-6e" x="503.955078"/>
      <use xlink:href="#DejaVuSans-61" x="567.333984"/>
      <use xlink:href="#DejaVuSans-6b" x="628.613281"/>
      <use xlink:href="#DejaVuSans-69" x="686.523438"/>
      <use xlink:href="#DejaVuSans-6e" x="714.306641"/>
      <use xlink:href="#DejaVuSans-72" x="777.685547"/>
      <use xlink:href="#DejaVuSans-61" x="818.798828"/>
      <use xlink:href="#DejaVuSans-29" x="880.078125"/>
     </g>
    </g>
   </g>
  </g>
 </g>
 <defs>
  <clipPath id="p847ce390a2">
   <rect x="96.614063" y="7.2" width="502.2" height="443.52"/>
  </clipPath>
 </defs>
</svg>
